# xmcd
#
# Track frame offsets:
#	150
#	12831
#	29352
#	39753
#	58554
#	73443
#	90708
#	105477
#	122382
#	137679
#	148968
#	168441
#	186114
#	205587
#	223140
#
# Disc length: 3211 seconds
#
# Revision: 0
# Processed by: cddbd v1.5.2PL0 Copyright (c) Steve Scherf et al.
# Submitted via: audiograbber 1.83.01
#
DISCID=d40c890f
DTITLE=Sandy Moran - Influences
DYEAR=1900
DGENRE=
TTITLE0=Under Your Spell
TTITLE1=Storms Never Last 
TTITLE2=Boys are Back
TTITLE3=Killin' Me Softly 
TTITLE4=Satin Sheets
TTITLE5=There's a Time
TTITLE6=I'm Not Lisa
TTITLE7=Do I Ever Cross Your Mind?
TTITLE8=You Can't Take it With You
TTITLE9=Blue Kentucky Girl
TTITLE10=Where Corn Don't Grow
TTITLE11=Three Chords and the Truth
TTITLE12=Kentucky
TTITLE13=Ode to Billie Jo
TTITLE14=Ship From the King's Harbor Shore
EXTD=
EXTT0=
EXTT1=
EXTT2=
EXTT3=
EXTT4=
EXTT5=
EXTT6=
EXTT7=
EXTT8=
EXTT9=
EXTT10=
EXTT11=
EXTT12=
EXTT13=
EXTT14=
PLAYORDER=
